<?xml version="1.0" encoding="UTF-8" standalone="no" ?>
<!DOCTYPE svg PUBLIC "-//W3C//DTD SVG 1.1//EN" "http://www.w3.org/Graphics/SVG/1.1/DTD/svg11.dtd">
<svg xmlns="http://www.w3.org/2000/svg" xmlns:xlink="http://www.w3.org/1999/xlink" version="1.1" width="32" height="32" viewBox="0 0 32 32" xml:space="preserve">
<desc>Created with Fabric.js 5.2.4</desc>
<defs>
</defs>
<g transform="matrix(1 0 0 1 16 16)" id="8ec362c2-9f6f-4c27-9b77-602e2d999e08"  >
<rect style="stroke: none; stroke-width: 1; stroke-dasharray: none; stroke-linecap: butt; stroke-dashoffset: 0; stroke-linejoin: miter; stroke-miterlimit: 4; fill: rgb(255,255,255); fill-rule: nonzero; opacity: 1; visibility: hidden;" vector-effect="non-scaling-stroke"  x="-16" y="-16" rx="0" ry="0" width="32" height="32" />
</g>
<g transform="matrix(Infinity NaN NaN Infinity 0 0)" id="5a7235d4-505c-4ec4-8acc-a43ee7068b95"  >
</g>
<g transform="matrix(0.06 0 0 0.06 16 16)" id="a7ef5e3c-2fbc-4b96-8ae2-7312b601e1db"  >
<path style="stroke: rgb(0,0,0); stroke-width: 0; stroke-dasharray: none; stroke-linecap: butt; stroke-dashoffset: 0; stroke-linejoin: miter; stroke-miterlimit: 4; fill: #0c999e; fill-rule: nonzero; opacity: 1;" vector-effect="non-scaling-stroke"  transform=" translate(-256, -256)" d="M 256 48 C 370.953 48 464 141.029 464 256 C 464 370.953 370.971 464 256 464 C 141.047 464 48 370.971 48 256 C 48 141.047 141.029 48 256 48 M 256 8 C 119.033 8 8 119.033 8 256 C 8 392.967 119.033 504 256 504 C 392.967 504 504 392.967 504 256 C 504 119.03300000000002 392.967 8 256 8 z M 256 64 C 149.961 64 64 149.961 64 256 C 64 362.039 149.961 448 256 448 C 362.039 448 448 362.039 448 256 C 448 149.961 362.039 64 256 64 z M 256 108 C 275.882 108 292 124.118 292 144 C 292 163.882 275.882 180 256 180 C 236.118 180 220 163.882 220 144 C 220 124.118 236.118 108 256 108 z M 373.741 206.023 C 345.029 212.802 318.22999999999996 218.771 291.601 221.82999999999998 C 292.452 322.85299999999995 303.907 344.882 316.638 377.451 C 320.255 386.711 315.681 397.149 306.421 400.766 C 297.15999999999997 404.38300000000004 286.722 399.809 283.105 390.54900000000004 C 274.40000000000003 368.24100000000004 266.019 349.913 260.844 312 L 251.158 312 C 245.99099999999999 349.851 237.624 368.20799999999997 228.896 390.549 C 225.28099999999998 399.804 214.84599999999998 404.385 205.581 400.76599999999996 C 196.321 397.14899999999994 191.74699999999999 386.71 195.36399999999998 377.45099999999996 C 208.07699999999997 344.90999999999997 219.54899999999998 322.90999999999997 220.40099999999998 221.82999999999996 C 193.772 218.77199999999996 166.97299999999998 212.80299999999997 138.26 206.02299999999997 C 129.66 203.99199999999996 124.33399999999999 195.37499999999997 126.365 186.77399999999997 C 128.39600000000002 178.17299999999997 137.012 172.84799999999998 145.614 174.87899999999996 C 242.3 197.70799999999997 269.897 197.66199999999998 366.389 174.87899999999996 C 374.988 172.84899999999996 383.607 178.17299999999997 385.63800000000003 186.77399999999997 C 387.66700000000003 195.37499999999997 382.341 203.99299999999997 373.74100000000004 206.02299999999997 z" stroke-linecap="round" />
</g>
</svg>