<?xml version="1.0" encoding="utf-8"?>
<svg viewBox="0 0 2000 500" xmlns="http://www.w3.org/2000/svg">
  <g style="" transform="matrix(0.265781, 0, 0, 0.265781, 136.824326, 195.408478)">
    <path fill="#41A5EE" d="M 1286.255 -669.38 L 2.893 -669.38 C -41.397 -669.38 -77.301 -633.476 -77.301 -589.186 C -77.301 -589.186 -77.301 -589.186 -77.301 -589.186 L -77.301 -231.88 L 666.449 -13.13 L 1366.449 -231.88 L 1366.449 -589.186 C 1366.449 -633.476 1330.545 -669.38 1286.255 -669.38 Z"/>
    <path fill="#2B7CD3" d="M 1366.449 -231.88 L -77.301 -231.88 L -77.301 205.62 L 666.449 336.87 L 1366.449 205.62 L 1366.449 -231.88 Z"/>
    <path fill="#185ABD" d="M -77.301 205.62 L -77.301 643.12 L 622.699 730.62 L 1366.449 643.12 L 1366.449 205.62 L -77.301 205.62 Z"/>
    <path fill="#103F91" d="M 2.893 1080.62 L 1286.256 1080.62 C 1330.546 1080.62 1366.45 1044.716 1366.45 1000.426 L 1366.45 643.12 L -77.301 643.12 L -77.301 1000.426 C -77.301 1044.716 -41.397 1080.62 2.893 1080.62 Z"/>
    <path opacity="0.1" enable-background="new    " d="M 455.005 -319.38 L -77.301 -319.38 L -77.301 774.37 L 455.005 774.37 C 499.235 774.226 535.055 738.406 535.199 694.176 L 535.199 -239.186 C 535.055 -283.416 499.235 -319.236 455.005 -319.38 Z"/>
    <path opacity="0.2" enable-background="new    " d="M 411.255 -275.63 L -77.301 -275.63 L -77.301 818.12 L 411.255 818.12 C 455.485 817.976 491.305 782.156 491.449 737.926 L 491.449 -195.436 C 491.305 -239.666 455.485 -275.486 411.255 -275.63 Z"/>
    <path opacity="0.2" enable-background="new    " d="M 411.255 -275.63 L -77.301 -275.63 L -77.301 730.62 L 411.255 730.62 C 455.485 730.476 491.305 694.656 491.449 650.426 L 491.449 -195.436 C 491.305 -239.666 455.485 -275.486 411.255 -275.63 Z"/>
    <path opacity="0.2" enable-background="new    " d="M 367.505 -275.63 L -77.301 -275.63 L -77.301 730.62 L 367.505 730.62 C 411.735 730.476 447.555 694.656 447.699 650.426 L 447.699 -195.436 C 447.555 -239.666 411.735 -275.486 367.505 -275.63 Z"/>
    <path fill="url(#SVGID_1_)" d="M -434.607 -275.63 L 367.505 -275.63 C 411.795 -275.63 447.699 -239.726 447.699 -195.436 L 447.699 606.677 C 447.699 650.967 411.795 686.871 367.505 686.871 L -434.607 686.871 C -478.897 686.871 -514.801 650.967 -514.801 606.677 L -514.801 -195.436 C -514.801 -239.726 -478.897 -275.63 -434.607 -275.63 Z"/>
    <path fill="#FFFFFF" d="M -185.713 339.408 C -184.138 351.789 -183.088 362.552 -182.607 371.783 L -180.77 371.783 C -180.07 363.033 -178.612 352.489 -176.395 340.152 C -174.178 327.814 -172.18 317.387 -170.401 308.871 L -86.051 -55.042 L 23.018 -55.042 L 110.518 303.402 C 115.602 325.69 119.241 348.283 121.412 371.039 L 122.856 371.039 C 124.487 348.992 127.527 327.073 131.956 305.414 L 201.737 -55.217 L 301.006 -55.217 L 178.418 466.283 L 62.437 466.283 L -20.688 120.92 C -23.094 110.989 -25.85 97.995 -28.869 82.026 C -31.888 66.057 -33.769 54.376 -34.513 47.026 L -35.957 47.026 C -36.919 55.513 -38.801 68.114 -41.601 84.826 C -44.401 101.539 -46.647 113.905 -48.339 121.926 L -126.477 466.195 L -244.427 466.195 L -367.67 -55.043 L -266.608 -55.043 L -190.614 309.613 C -188.907 317.095 -187.288 327.07 -185.713 339.408 Z"/>
  </g>
  <linearGradient id="SVGID_1_" gradientUnits="userSpaceOnUse" x1="167.2057" y1="1420.9117" x2="795.2943" y2="333.0883" gradientTransform="matrix(1, 0, 0, -1, -514.801216, 1082.62029)">
    <stop offset="0" style="stop-color:#2368C4"/>
    <stop offset="0.5" style="stop-color:#1A5DBE"/>
    <stop offset="1" style="stop-color:#1146AC"/>
  </linearGradient>
  <linearGradient id="gradient-1" gradientUnits="userSpaceOnUse" x1="170.6454" y1="1450.1008" x2="811.6547" y2="339.8992" gradientTransform="matrix(0.260423, 0, 0, -0.260423, 499.999695, -289.781891)">
    <stop offset="0" style="stop-color:#CA4C28"/>
    <stop offset="0.5" style="stop-color:#C5401E"/>
    <stop offset="1" style="stop-color:#B62F14"/>
  </linearGradient>
  <g transform="matrix(1, 0, 0, 1, 500, 772.919006)">
    <path fill="#ED6C47" d="M 802.325 -499.605 L 767.442 -755.419 L 764.837 -755.419 C 637.991 -755.049 535.254 -652.312 534.883 -525.466 L 534.883 -522.861 L 802.325 -499.605 Z"/>
    <path fill="#FF8F6B" d="M 770.046 -755.419 L 767.442 -755.419 L 767.442 -522.861 L 883.721 -476.349 L 1000 -522.861 L 1000 -525.466 C 999.629 -652.312 896.892 -755.049 770.046 -755.419 Z"/>
    <path fill="#D35230" d="M 1000 -522.861 L 1000 -520.303 C 999.636 -393.428 896.874 -290.667 770 -290.303 L 764.883 -290.303 C 638.009 -290.667 535.247 -393.428 534.883 -520.303 L 534.883 -522.861 L 1000 -522.861 Z"/>
    <path opacity="0.1" enable-background="new    " d="M 779.069 -641.117 L 779.069 -392.977 C 779.012 -384.355 773.786 -376.609 765.814 -373.326 C 763.275 -372.253 760.547 -371.699 757.79 -371.698 L 589.767 -371.698 C 586.511 -375.419 583.372 -379.373 580.465 -383.326 C 550.84 -422.845 534.845 -470.913 534.883 -520.303 L 534.883 -525.419 C 534.815 -569.968 547.835 -613.555 572.325 -650.768 C 574.883 -654.722 577.558 -658.675 580.465 -662.396 L 757.79 -662.396 C 769.506 -662.307 778.981 -652.832 779.069 -641.117 Z"/>
    <path opacity="0.2" enable-background="new    " d="M 767.442 -629.489 L 767.442 -381.349 C 767.441 -378.593 766.887 -375.864 765.814 -373.326 C 762.531 -365.353 754.785 -360.128 746.162 -360.07 L 600.348 -360.07 C 596.669 -363.805 593.139 -367.684 589.767 -371.698 C 586.511 -375.419 583.372 -379.372 580.465 -383.326 C 550.84 -422.845 534.845 -470.913 534.883 -520.303 L 534.883 -525.419 C 534.815 -569.968 547.835 -613.555 572.325 -650.768 L 746.162 -650.768 C 757.878 -650.679 767.353 -641.204 767.442 -629.489 Z"/>
    <path opacity="0.2" enable-background="new    " d="M 767.442 -629.489 L 767.442 -404.605 C 767.353 -392.89 757.878 -383.415 746.163 -383.326 L 580.465 -383.326 C 550.84 -422.845 534.845 -470.913 534.883 -520.302 L 534.883 -525.419 C 534.815 -569.967 547.835 -613.555 572.325 -650.768 L 746.162 -650.768 C 757.878 -650.679 767.353 -641.204 767.442 -629.489 Z"/>
    <path opacity="0.2" enable-background="new    " d="M 755.814 -629.489 L 755.814 -404.605 C 755.725 -392.89 746.25 -383.415 734.535 -383.326 L 580.465 -383.326 C 550.84 -422.845 534.845 -470.913 534.883 -520.302 L 534.883 -525.419 C 534.815 -569.967 547.835 -613.555 572.325 -650.768 L 734.534 -650.768 C 746.25 -650.679 755.725 -641.204 755.814 -629.489 Z"/>
    <path fill="url(#gradient-1)" d="M 521.313 -650.768 L 734.5 -650.768 C 746.271 -650.768 755.813 -641.225 755.813 -629.454 L 755.813 -416.268 C 755.813 -404.497 746.271 -394.954 734.5 -394.954 L 521.313 -394.954 C 509.542 -394.954 500 -404.497 500 -416.268 L 500 -629.454 C 500 -641.225 509.542 -650.768 521.313 -650.768 Z"/>
    <path fill="#FFFFFF" d="M 630.232 -593.919 C 644.11 -594.855 657.868 -590.824 669.046 -582.547 C 678.369 -574.223 683.351 -562.078 682.558 -549.605 C 682.71 -540.935 680.4 -532.399 675.895 -524.989 C 671.335 -517.706 664.764 -511.899 656.976 -508.268 C 648.073 -504.127 638.339 -502.082 628.523 -502.291 L 601.558 -502.291 L 601.558 -452.175 L 573.941 -452.175 L 573.941 -593.919 L 630.232 -593.919 Z M 601.535 -523.942 L 625.302 -523.942 C 632.837 -523.389 640.313 -525.619 646.314 -530.209 C 651.277 -534.971 653.878 -541.685 653.418 -548.547 C 653.418 -564.167 644.341 -571.977 626.186 -571.977 L 601.535 -571.977 L 601.535 -523.942 Z"/>
  </g>
  <g transform="matrix(0.218364, 0, 0, 0.218364, 418.077728, 282.123169)">
    <path fill="#185C37" d="M 1812.913 -200.094 L 907.663 -359.844 L 907.663 820.549 C 907.663 874.456 951.363 918.156 1005.27 918.156 L 2567.306 918.156 C 2621.213 918.156 2664.913 874.456 2664.913 820.549 L 2664.913 385.656 L 1812.913 -200.094 Z"/>
    <path fill="#21A366" d="M 1812.913 -1211.844 L 1005.27 -1211.844 C 951.363 -1211.844 907.663 -1168.144 907.663 -1114.237 C 907.663 -1114.237 907.663 -1114.237 907.663 -1114.237 L 907.663 -679.344 L 1812.913 -146.844 L 2292.163 12.906 L 2664.913 -146.844 L 2664.913 -679.344 L 1812.913 -1211.844 Z"/>
    <path fill="#107C41" d="M 907.663 -679.344 L 1812.913 -679.344 L 1812.913 -146.844 L 907.663 -146.844 L 907.663 -679.344 Z"/>
    <path opacity="0.1" enable-background="new    " d="M 1555.556 -785.844 L 907.663 -785.844 L 907.663 545.406 L 1555.556 545.406 C 1609.39 545.231 1652.988 501.633 1653.163 447.799 L 1653.163 -688.237 C 1652.988 -742.071 1609.39 -785.669 1555.556 -785.844 Z"/>
    <path opacity="0.2" enable-background="new    " d="M 1502.306 -732.594 L 907.663 -732.594 L 907.663 598.656 L 1502.306 598.656 C 1556.14 598.481 1599.738 554.883 1599.913 501.049 L 1599.913 -634.987 C 1599.738 -688.821 1556.14 -732.419 1502.306 -732.594 Z"/>
    <path opacity="0.2" enable-background="new    " d="M 1502.306 -732.594 L 907.663 -732.594 L 907.663 492.156 L 1502.306 492.156 C 1556.14 491.981 1599.738 448.383 1599.913 394.549 L 1599.913 -634.987 C 1599.738 -688.821 1556.14 -732.419 1502.306 -732.594 Z"/>
    <path opacity="0.2" enable-background="new    " d="M 1449.056 -732.594 L 907.663 -732.594 L 907.663 492.156 L 1449.056 492.156 C 1502.89 491.981 1546.488 448.383 1546.663 394.549 L 1546.663 -634.987 C 1546.488 -688.821 1502.89 -732.419 1449.056 -732.594 Z"/>
    <path fill="url(#gradient-2)" d="M 472.77 -732.594 L 1449.055 -732.594 C 1502.962 -732.594 1546.662 -688.894 1546.662 -634.987 L 1546.662 341.298 C 1546.662 395.205 1502.962 438.905 1449.055 438.905 L 472.77 438.905 C 418.863 438.906 375.163 395.206 375.163 341.299 L 375.163 -634.987 C 375.163 -688.894 418.863 -732.594 472.77 -732.594 Z"/>
    <path fill="#FFFFFF" d="M 677.463 170.42 L 882.795 -147.749 L 694.663 -464.161 L 845.999 -464.161 L 948.665 -261.811 C 958.144 -242.588 964.64 -228.317 968.155 -218.892 L 969.486 -218.892 C 976.231 -234.228 983.331 -249.12 990.786 -263.569 L 1100.534 -464.054 L 1239.463 -464.054 L 1046.538 -149.506 L 1244.363 170.419 L 1096.541 170.419 L 977.953 -51.686 C 972.367 -61.136 967.627 -71.062 963.789 -81.346 L 962.032 -81.346 C 958.558 -71.271 953.949 -61.624 948.293 -52.591 L 826.191 170.42 L 677.463 170.42 Z"/>
    <path fill="#33C481" d="M 2567.306 -1211.844 L 1812.913 -1211.844 L 1812.913 -679.344 L 2664.913 -679.344 L 2664.913 -1114.237 C 2664.913 -1168.144 2621.213 -1211.844 2567.306 -1211.844 Z"/>
    <path fill="#107C41" d="M 1812.913 -146.844 L 2664.913 -146.844 L 2664.913 385.656 L 1812.913 385.656 L 1812.913 -146.844 Z"/>
  </g>
  <linearGradient id="gradient-2" gradientUnits="userSpaceOnUse" x1="203.5132" y1="1729.0183" x2="967.9868" y2="404.9817" gradientTransform="matrix(1, 0, 0, -1, 375.163427, 920.155744)">
    <stop offset="0" style="stop-color:#18884F"/>
    <stop offset="0.5" style="stop-color:#117E43"/>
    <stop offset="1" style="stop-color:#0B6631"/>
  </linearGradient>
  <g>
    <path fill="#FA0F00" d="M 1588.393 0 L 1911.605 0 C 1960.715 0 2000 39.285 2000 88.392 L 2000 411.607 C 2000 460.714 1960.715 500 1911.605 500 L 1588.393 500 C 1539.285 500 1500 460.714 1500 411.607 L 1500 88.392 C 1500 39.285 1539.285 0 1588.393 0 Z"/>
    <path fill="#FFF" d="M 1898.719 288.392 C 1875.502 264.285 1812.109 274.107 1796.932 275.892 C 1774.611 254.462 1759.434 228.57 1754.076 219.642 C 1762.111 195.535 1767.467 171.427 1768.361 145.537 C 1768.361 123.214 1759.434 99.109 1734.432 99.109 C 1725.504 99.109 1717.467 104.464 1713.002 111.607 C 1702.289 130.359 1706.752 167.859 1723.717 206.252 C 1713.896 233.929 1704.967 260.714 1679.967 308.037 C 1654.074 318.748 1599.609 343.75 1595.145 370.537 C 1593.359 378.57 1596.037 386.609 1602.287 392.857 C 1608.537 398.214 1616.572 400.892 1624.609 400.892 C 1657.645 400.892 1689.787 355.359 1712.109 316.962 C 1730.859 310.714 1760.324 301.785 1789.789 296.427 C 1824.609 326.785 1854.967 331.248 1871.039 331.248 C 1892.467 331.248 1900.504 322.32 1903.182 314.283 C 1907.645 305.357 1904.967 295.535 1898.719 288.392 Z M 1876.395 303.572 C 1875.502 309.822 1867.469 316.07 1853.182 312.5 C 1836.217 308.037 1821.039 300 1807.646 289.285 C 1819.254 287.498 1845.145 284.82 1863.896 288.392 C 1871.039 290.177 1878.182 294.642 1876.395 303.572 Z M 1727.289 119.642 C 1729.074 116.964 1731.754 115.179 1734.432 115.179 C 1742.467 115.179 1744.252 125 1744.252 133.037 C 1743.359 151.789 1739.787 170.537 1733.539 188.394 C 1720.145 152.679 1722.824 127.677 1727.289 119.642 Z M 1725.504 292.857 C 1732.646 278.572 1742.469 253.57 1746.039 242.855 C 1754.074 256.246 1767.467 272.32 1774.611 279.462 C 1774.611 280.357 1746.932 285.712 1725.504 292.857 Z M 1672.824 328.572 C 1652.289 362.5 1630.859 383.927 1619.252 383.927 C 1617.467 383.927 1615.68 383.035 1613.895 382.142 C 1611.215 380.355 1610.322 377.677 1611.215 374.107 C 1613.895 361.607 1637.109 344.642 1672.824 328.572 Z"/>
  </g>
</svg>